<svg id="visual" viewBox="0 0 900 100" width="900" height="100" xmlns="http://www.w3.org/2000/svg" xmlns:xlink="http://www.w3.org/1999/xlink" version="1.1"><rect x="0" y="0" width="900" height="100" fill="#415A77"></rect><path d="M0 61L8.3 62.3C16.7 63.7 33.3 66.3 50 67.8C66.7 69.3 83.3 69.7 100 64.8C116.7 60 133.3 50 150 48C166.7 46 183.3 52 200 53.7C216.7 55.3 233.3 52.7 250 54.2C266.7 55.7 283.3 61.3 300 59.5C316.7 57.7 333.3 48.3 350 44.7C366.7 41 383.3 43 400 42.7C416.7 42.3 433.3 39.7 450 44.8C466.7 50 483.3 63 500 64.5C516.7 66 533.3 56 550 52.7C566.7 49.3 583.3 52.7 600 58C616.7 63.3 633.3 70.7 650 70.7C666.7 70.7 683.3 63.3 700 56.7C716.7 50 733.3 44 750 46.3C766.7 48.7 783.3 59.3 800 66.7C816.7 74 833.3 78 850 74C866.7 70 883.3 58 891.7 52L900 46L900 101L891.7 101C883.3 101 866.7 101 850 101C833.3 101 816.7 101 800 101C783.3 101 766.7 101 750 101C733.3 101 716.7 101 700 101C683.3 101 666.7 101 650 101C633.3 101 616.7 101 600 101C583.3 101 566.7 101 550 101C533.3 101 516.7 101 500 101C483.3 101 466.7 101 450 101C433.3 101 416.7 101 400 101C383.3 101 366.7 101 350 101C333.3 101 316.7 101 300 101C283.3 101 266.7 101 250 101C233.3 101 216.7 101 200 101C183.3 101 166.7 101 150 101C133.3 101 116.7 101 100 101C83.3 101 66.7 101 50 101C33.3 101 16.7 101 8.3 101L0 101Z" fill="#E0E1DD" stroke-linecap="round" stroke-linejoin="miter"></path></svg>