<svg id="visual" viewBox="0 0 900 100" width="900" height="100" xmlns="http://www.w3.org/2000/svg" xmlns:xlink="http://www.w3.org/1999/xlink" version="1.1"><rect x="0" y="0" width="900" height="100" fill="#B3AF8F"></rect><path d="M0 61L50 69L100 70L150 40L200 58L250 50L300 67L350 39L400 45L450 37L500 76L550 46L600 56L650 78L700 56L750 38L800 70L850 82L900 46L900 101L850 101L800 101L750 101L700 101L650 101L600 101L550 101L500 101L450 101L400 101L350 101L300 101L250 101L200 101L150 101L100 101L50 101L0 101Z" fill="#1B263B" stroke-linecap="square" stroke-linejoin="bevel"></path></svg>