<svg id="visual" viewBox="0 0 700 100" width="700" height="100" xmlns="http://www.w3.org/2000/svg" xmlns:xlink="http://www.w3.org/1999/xlink" version="1.1"><rect x="0" y="0" width="700" height="100" fill="#415A77"></rect><path d="M0 69L6.5 64C13 59 26 49 39 50.8C52 52.7 65 66.3 78 70.7C91 75 104 70 117 62.5C130 55 143 45 155.8 47.5C168.7 50 181.3 65 194.2 67.2C207 69.3 220 58.7 233 51.3C246 44 259 40 272 44.2C285 48.3 298 60.7 311 62.3C324 64 337 55 350 50.8C363 46.7 376 47.3 389 48.8C402 50.3 415 52.7 428 57.3C441 62 454 69 467 65.7C480 62.3 493 48.7 505.8 42.8C518.7 37 531.3 39 544.2 42C557 45 570 49 583 50.5C596 52 609 51 622 55.5C635 60 648 70 661 71.3C674 72.7 687 65.3 693.5 61.7L700 58L700 101L693.5 101C687 101 674 101 661 101C648 101 635 101 622 101C609 101 596 101 583 101C570 101 557 101 544.2 101C531.3 101 518.7 101 505.8 101C493 101 480 101 467 101C454 101 441 101 428 101C415 101 402 101 389 101C376 101 363 101 350 101C337 101 324 101 311 101C298 101 285 101 272 101C259 101 246 101 233 101C220 101 207 101 194.2 101C181.3 101 168.7 101 155.8 101C143 101 130 101 117 101C104 101 91 101 78 101C65 101 52 101 39 101C26 101 13 101 6.5 101L0 101Z" fill="#E0E1DD" stroke-linecap="round" stroke-linejoin="miter"></path></svg>