<svg id="visual" viewBox="0 0 700 100" width="700" height="100" xmlns="http://www.w3.org/2000/svg" xmlns:xlink="http://www.w3.org/1999/xlink" version="1.1"><rect x="0" y="0" width="700" height="100" fill="#1B263B"></rect><path d="M0 42L39 42L39 52L78 52L78 50L117 50L117 75L156 75L156 67L194 67L194 66L233 66L233 79L272 79L272 43L311 43L311 44L350 44L350 76L389 76L389 67L428 67L428 45L467 45L467 47L506 47L506 60L544 60L544 51L583 51L583 78L622 78L622 77L661 77L661 38L700 38L700 76L700 101L700 101L661 101L661 101L622 101L622 101L583 101L583 101L544 101L544 101L506 101L506 101L467 101L467 101L428 101L428 101L389 101L389 101L350 101L350 101L311 101L311 101L272 101L272 101L233 101L233 101L194 101L194 101L156 101L156 101L117 101L117 101L78 101L78 101L39 101L39 101L0 101Z" fill="#B3AF8F" stroke-linecap="square" stroke-linejoin="miter"></path></svg>