<svg id="visual" viewBox="0 0 700 100" width="700" height="100" xmlns="http://www.w3.org/2000/svg" xmlns:xlink="http://www.w3.org/1999/xlink" version="1.1"><rect x="0" y="0" width="700" height="100" fill="#B3AF8F"></rect><path d="M0 58L6.5 57.8C13 57.7 26 57.3 39 55.5C52 53.7 65 50.3 78 54.2C91 58 104 69 117 67.8C130 66.7 143 53.3 155.8 52.5C168.7 51.7 181.3 63.3 194.2 69.8C207 76.3 220 77.7 233 72.7C246 67.7 259 56.3 272 51.7C285 47 298 49 311 53.5C324 58 337 65 350 63.7C363 62.3 376 52.7 389 47.5C402 42.3 415 41.7 428 48C441 54.3 454 67.7 467 69.8C480 72 493 63 505.8 55.5C518.7 48 531.3 42 544.2 39.8C557 37.7 570 39.3 583 39.8C596 40.3 609 39.7 622 43.8C635 48 648 57 661 57.2C674 57.3 687 48.7 693.5 44.3L700 40L700 101L693.5 101C687 101 674 101 661 101C648 101 635 101 622 101C609 101 596 101 583 101C570 101 557 101 544.2 101C531.3 101 518.7 101 505.8 101C493 101 480 101 467 101C454 101 441 101 428 101C415 101 402 101 389 101C376 101 363 101 350 101C337 101 324 101 311 101C298 101 285 101 272 101C259 101 246 101 233 101C220 101 207 101 194.2 101C181.3 101 168.7 101 155.8 101C143 101 130 101 117 101C104 101 91 101 78 101C65 101 52 101 39 101C26 101 13 101 6.5 101L0 101Z" fill="#E0E1DD" stroke-linecap="round" stroke-linejoin="miter"></path></svg>