<svg id="visual" viewBox="0 0 700 100" width="700" height="100" xmlns="http://www.w3.org/2000/svg" xmlns:xlink="http://www.w3.org/1999/xlink" version="1.1"><rect x="0" y="0" width="700" height="100" fill="#E0E1DD"></rect><path d="M0 72L39 76L78 54L117 48L156 64L194 76L233 68L272 39L311 53L350 36L389 55L428 68L467 38L506 39L544 47L583 50L622 80L661 75L700 82L700 101L661 101L622 101L583 101L544 101L506 101L467 101L428 101L389 101L350 101L311 101L272 101L233 101L194 101L156 101L117 101L78 101L39 101L0 101Z" fill="#1B263B" stroke-linecap="square" stroke-linejoin="bevel"></path></svg>