<svg id="visual" viewBox="0 0 400 100" width="400" height="100" xmlns="http://www.w3.org/2000/svg" xmlns:xlink="http://www.w3.org/1999/xlink" version="1.1"><rect x="0" y="0" width="400" height="100" fill="#E0E1DD"></rect><path d="M0 78L3.7 72.2C7.3 66.3 14.7 54.7 22 49.3C29.3 44 36.7 45 44.2 45.5C51.7 46 59.3 46 66.8 49.5C74.3 53 81.7 60 89 63C96.3 66 103.7 65 111 60.3C118.3 55.7 125.7 47.3 133.2 47C140.7 46.7 148.3 54.3 155.8 54.8C163.3 55.3 170.7 48.7 178 44.5C185.3 40.3 192.7 38.7 200 45C207.3 51.3 214.7 65.7 222 71.3C229.3 77 236.7 74 244.2 69.3C251.7 64.7 259.3 58.3 266.8 56.7C274.3 55 281.7 58 289 61C296.3 64 303.7 67 311 68.8C318.3 70.7 325.7 71.3 333.2 68.8C340.7 66.3 348.3 60.7 355.8 55C363.3 49.3 370.7 43.7 378 43.5C385.3 43.3 392.7 48.7 396.3 51.3L400 54L400 101L396.3 101C392.7 101 385.3 101 378 101C370.7 101 363.3 101 355.8 101C348.3 101 340.7 101 333.2 101C325.7 101 318.3 101 311 101C303.7 101 296.3 101 289 101C281.7 101 274.3 101 266.8 101C259.3 101 251.7 101 244.2 101C236.7 101 229.3 101 222 101C214.7 101 207.3 101 200 101C192.7 101 185.3 101 178 101C170.7 101 163.3 101 155.8 101C148.3 101 140.7 101 133.2 101C125.7 101 118.3 101 111 101C103.7 101 96.3 101 89 101C81.7 101 74.3 101 66.8 101C59.3 101 51.7 101 44.2 101C36.7 101 29.3 101 22 101C14.7 101 7.3 101 3.7 101L0 101Z" fill="#B3AF8F" stroke-linecap="round" stroke-linejoin="miter"></path></svg>